# xmcd
#
# Track frame offsets:
#	150
#	21015
#	43631
#	78398
#	123615
#	164317
#	208361
#	232018
#	254599
#	282011
#	308824
#
# Disc length: 4420 seconds
#
# Revision: 1
# Processed by: cddbd v1.5.2PL0 Copyright (c) Steve Scherf et al.
# Submitted via: audiograbber 1.83.01
#
DISCID=9a11420b
DTITLE=Grateful Dead - 80-06-29 Pauley Pavilion, UCLA, Los Angeles CA
DYEAR=1900
DGENRE=
TTITLE0=Alabama Getaway
TTITLE1=Promised Land
TTITLE2=Loser
TTITLE3=New Minglewood Blues
TTITLE4=Althea
TTITLE5=Looks Like Rain
TTITLE6=Easy To Love You
TTITLE7=Big Railroad Blues
TTITLE8=Lost Sailor
TTITLE9=Saint Of Circumstance
TTITLE10=Deal
EXTD=
EXTT0=
EXTT1=
EXTT2=
EXTT3=
EXTT4=
EXTT5=
EXTT6=
EXTT7=
EXTT8=
EXTT9=
EXTT10=
PLAYORDER=
